<?xml version="1.0" encoding="utf-8"?>
<!-- Generator: Adobe Illustrator 25.4.1, SVG Export Plug-In . SVG Version: 6.00 Build 0)  -->
<svg version="1.1" id="Layer_1" xmlns="http://www.w3.org/2000/svg" xmlns:xlink="http://www.w3.org/1999/xlink" x="0px" y="0px"
	 viewBox="0 0 107 33" style="enable-background:new 0 0 107 33;" xml:space="preserve">
<style type="text/css">
	.st0{fill:url(#SVGID_1_);}
	.st1{enable-background:new    ;}
	.st2{fill:#282642;}
	.st3{fill:url(#SVGID_00000176017726822710843350000007750730674899313295_);}
</style>
<desc>Created with Sketch.</desc>
<linearGradient id="SVGID_1_" gradientUnits="userSpaceOnUse" x1="1.5265" y1="17.45" x2="20.533" y2="17.45" gradientTransform="matrix(1 0 0 -1 0 34)">
	<stop  offset="0" style="stop-color:#F59E0B"/>
	<stop  offset="1" style="stop-color:#F97316"/>
</linearGradient>
<path class="st0" d="M11.8,12.2l0.5-2.9H9.4l-0.5,2.9H6l-0.5,2.9h2.9l-1.5,8.7h5.8c1.6,0,3.1-1.3,3.4-2.9l0,0h-5.8l1-5.8h5.8
	c1.6,0,2.7,1.3,2.4,2.9L19,20.9c-0.6,3.2-3.6,5.8-6.8,5.8H6.4c-3.2,0-5.3-2.6-4.8-5.8l1.5-8.7C3.7,9,6.8,6.4,9.9,6.4h5.8
	c3.2,0,5.3,2.6,4.8,5.8l0,0C20.5,12.2,11.8,12.2,11.8,12.2z"/>
<g class="st1">
	<path class="st2" d="M34,11.3c0.1,0,0.2,0,0.3,0.1c0.1,0.1,0.2,0.2,0.2,0.4V13c0,0.1,0,0.2-0.1,0.3c0,0.1-0.1,0.1-0.1,0.2
		c0,0-0.1,0.1-0.1,0.1c0,0-0.1,0-0.1,0h-3.7v9.4c0,0.2-0.1,0.4-0.2,0.4c-0.1,0.1-0.2,0.1-0.3,0.1h-1.3c-0.1,0-0.1,0-0.2-0.1
		s-0.2-0.2-0.2-0.4v-9.4h-3.7c0,0-0.1,0-0.1,0c0,0-0.1,0-0.1-0.1c0,0-0.1-0.1-0.1-0.2c0-0.1-0.1-0.2-0.1-0.3v-1.1
		c0-0.2,0.1-0.4,0.2-0.4c0.1-0.1,0.2-0.1,0.3-0.1H34z"/>
	<path class="st2" d="M38.4,11.2c0.3,0,0.5,0,0.7,0.1c0.2,0.1,0.4,0.2,0.5,0.3c0.1,0.1,0.3,0.3,0.4,0.5c0.1,0.2,0.2,0.4,0.3,0.6
		l4.1,10.1c0,0.1,0.1,0.2,0.1,0.2c0,0.1,0,0.2-0.1,0.2c-0.1,0.1-0.1,0.1-0.2,0.1h-1.6c-0.2,0-0.3-0.1-0.4-0.3l-3.6-9h-0.1l-1.9,4.8
		h1.8c0.2,0,0.3,0.1,0.4,0.3c0,0.1,0.1,0.2,0.1,0.3c0.1,0.1,0.1,0.3,0.2,0.4s0.1,0.3,0.2,0.4c0,0.1,0.1,0.2,0.1,0.3
		c0,0.1,0,0.2-0.1,0.3C39,20.9,38.9,21,38.8,21h-3.2L34.8,23c-0.1,0.2-0.2,0.3-0.4,0.3h-1.6c-0.2,0-0.3-0.1-0.3-0.3
		c0-0.1,0-0.2,0-0.2l4.1-10.1c0.2-0.4,0.4-0.8,0.7-1.1C37.5,11.3,37.9,11.2,38.4,11.2z"/>
	<path class="st2" d="M59.3,11.1c0.2,0,0.3,0.1,0.3,0.3c0,0.1,0,0.2,0,0.2l-3.2,10.1c-0.1,0.4-0.4,0.8-0.7,1.1
		c-0.3,0.3-0.7,0.4-1.2,0.4c-0.4,0-0.8-0.1-1.1-0.4c-0.3-0.2-0.5-0.6-0.7-0.9l-2.1-6.9l-2.2,6.7c-0.1,0.4-0.4,0.8-0.7,1.1
		c-0.3,0.3-0.7,0.4-1.2,0.4c-0.4,0-0.8-0.1-1.1-0.4c-0.3-0.2-0.5-0.6-0.7-0.9l-3.2-10.5c0-0.2,0.1-0.3,0.3-0.3h1.6
		c0.2,0,0.4,0.1,0.4,0.3l2.5,8.8h0.1l2.8-8.8c0.1-0.2,0.2-0.3,0.4-0.3h1.6c0.2,0,0.3,0.1,0.4,0.3l2.5,8.8h0.1l2.8-8.8
		c0.1-0.2,0.2-0.3,0.4-0.3H59.3z"/>
	<path class="st2" d="M69.4,11.3c0.1,0,0.2,0,0.3,0.1c0.1,0.1,0.2,0.2,0.2,0.4v11c0,0.2-0.1,0.4-0.2,0.4c-0.1,0.1-0.2,0.1-0.3,0.1
		H68c-0.1,0-0.1,0-0.2-0.1c-0.1-0.1-0.2-0.2-0.2-0.4v-4.5h-5.5v4.5c0,0.2-0.1,0.4-0.2,0.4c-0.1,0.1-0.2,0.1-0.3,0.1h-1.3
		c-0.1,0-0.2,0-0.3-0.1c-0.1-0.1-0.2-0.2-0.2-0.4v-11c0-0.2,0.1-0.4,0.2-0.4c0.1-0.1,0.2-0.1,0.3-0.1h1.3c0.1,0,0.2,0,0.3,0.1
		c0.1,0.1,0.2,0.2,0.2,0.4v4.4h5.5v-4.4c0-0.2,0.1-0.4,0.2-0.4c0.1-0.1,0.2-0.1,0.2-0.1H69.4z"/>
	<path class="st2" d="M79.6,11.3c0.1,0,0.1,0,0.2,0.1c0.1,0.1,0.2,0.2,0.2,0.4V13c0,0.2-0.1,0.4-0.2,0.4c-0.1,0.1-0.2,0.1-0.2,0.1
		h-8.4c-0.1,0-0.1,0-0.2-0.1c-0.1-0.1-0.2-0.2-0.2-0.4v-1.1c0-0.2,0.1-0.4,0.2-0.4c0.1-0.1,0.2-0.1,0.2-0.1H79.6z M73,19.8
		c0,0.5,0.1,0.8,0.4,1c0.3,0.2,0.6,0.3,1.1,0.3h5.1c0.2,0,0.3,0,0.3,0.1c0.1,0.1,0.1,0.2,0.1,0.3v1.2c0,0.1,0,0.3-0.1,0.3
		c-0.1,0.1-0.2,0.1-0.3,0.1h-5.2c-0.7,0-1.3-0.1-1.7-0.3c-0.5-0.2-0.8-0.5-1.1-0.9c-0.3-0.4-0.5-0.8-0.6-1.3
		c-0.1-0.5-0.2-1.1-0.2-1.7v-1.9c0-0.1,0-0.2,0.1-0.4c0-0.1,0.1-0.2,0.2-0.3c0.1-0.1,0.2-0.2,0.4-0.2c0.2-0.1,0.3-0.1,0.6-0.1h7.5
		c0.1,0,0.2,0,0.3,0.1c0.1,0.1,0.1,0.2,0.1,0.3v1.2c0,0.1,0,0.3-0.1,0.4c-0.1,0.1-0.2,0.2-0.3,0.2H73V19.8z"/>
	<path class="st2" d="M89.5,11.3c0.1,0,0.1,0,0.2,0.1c0.1,0.1,0.2,0.2,0.2,0.4V13c0,0.2-0.1,0.4-0.2,0.4c-0.1,0.1-0.2,0.1-0.2,0.1
		h-8.4c-0.1,0-0.1,0-0.2-0.1c-0.1-0.1-0.2-0.2-0.2-0.4v-1.1c0-0.2,0.1-0.4,0.2-0.4c0.1-0.1,0.2-0.1,0.2-0.1H89.5z M82.9,19.8
		c0,0.5,0.1,0.8,0.4,1c0.3,0.2,0.6,0.3,1.1,0.3h5.1c0.2,0,0.3,0,0.3,0.1c0.1,0.1,0.1,0.2,0.1,0.3v1.2c0,0.1,0,0.3-0.1,0.3
		c-0.1,0.1-0.2,0.1-0.3,0.1h-5.2c-0.7,0-1.3-0.1-1.7-0.3c-0.5-0.2-0.8-0.5-1.1-0.9c-0.3-0.4-0.5-0.8-0.6-1.3
		c-0.1-0.5-0.2-1.1-0.2-1.7v-1.9c0-0.1,0-0.2,0.1-0.4c0-0.1,0.1-0.2,0.2-0.3c0.1-0.1,0.2-0.2,0.4-0.2c0.2-0.1,0.3-0.1,0.6-0.1h7.5
		c0.1,0,0.2,0,0.3,0.1c0.1,0.1,0.1,0.2,0.1,0.3v1.2c0,0.1,0,0.3-0.1,0.4c-0.1,0.1-0.2,0.2-0.3,0.2h-6.5V19.8z"/>
	<path class="st2" d="M97,11.3c0.8,0,1.4,0.1,1.9,0.4c0.5,0.2,0.9,0.6,1.2,1c0.3,0.4,0.5,1,0.6,1.5c0.1,0.6,0.2,1.2,0.2,1.9v2.3
		c0,0.7-0.1,1.3-0.2,1.9c-0.1,0.6-0.3,1.1-0.6,1.5c-0.3,0.4-0.7,0.8-1.2,1c-0.5,0.2-1.2,0.4-1.9,0.4h-5c-0.1,0-0.3,0-0.4-0.1
		s-0.3-0.1-0.4-0.2c-0.1-0.1-0.2-0.2-0.3-0.3c-0.1-0.1-0.1-0.3-0.1-0.4v-9.9c0-0.3,0.1-0.5,0.3-0.7c0.2-0.2,0.5-0.3,0.8-0.3H97z
		 M96.9,21.2c0.4,0,0.7-0.1,1-0.2c0.2-0.1,0.4-0.3,0.5-0.5c0.1-0.2,0.2-0.5,0.2-0.8s0.1-0.6,0.1-1V16c0-0.3,0-0.7-0.1-1
		c0-0.3-0.1-0.6-0.2-0.8c-0.1-0.2-0.3-0.4-0.5-0.5c-0.2-0.1-0.6-0.2-1-0.2h-4v7.7H96.9z"/>
</g>
<linearGradient id="SVGID_00000019653273283211729020000006172362884957427077_" gradientUnits="userSpaceOnUse" x1="102.2637" y1="12.3" x2="105.4578" y2="12.3" gradientTransform="matrix(1 0 0 -1 0 34)">
	<stop  offset="0" style="stop-color:#F59E0B"/>
	<stop  offset="1" style="stop-color:#F97316"/>
</linearGradient>
<path style="fill:url(#SVGID_00000019653273283211729020000006172362884957427077_);" d="M104.7,23.3h-1.6c-0.4,0-0.8-0.4-0.8-0.8
	v-1.6c0-0.4,0.4-0.8,0.8-0.8h1.6c0.4,0,0.8,0.4,0.8,0.8v1.6C105.5,23,105.1,23.3,104.7,23.3z"/>
</svg>
