<?xml version="1.0" encoding="utf-8"?>
<!-- Generator: Adobe Illustrator 25.4.1, SVG Export Plug-In . SVG Version: 6.00 Build 0)  -->
<svg version="1.1" id="Layer_1" xmlns="http://www.w3.org/2000/svg" xmlns:xlink="http://www.w3.org/1999/xlink" x="0px" y="0px"
	 viewBox="0 0 108 108" style="enable-background:new 0 0 108 108;" xml:space="preserve">
<style type="text/css">
	.st0{fill:url(#SVGID_1_);}
</style>
<linearGradient id="SVGID_1_" gradientUnits="userSpaceOnUse" x1="9.6882" y1="54" x2="98.3118" y2="54">
	<stop  offset="0" style="stop-color:#F59E0B"/>
	<stop  offset="1" style="stop-color:#F97316"/>
</linearGradient>
<path class="st0" d="M57.6,33.8l2.4-13.4H46.5l-2.4,13.4H30.7l-2.4,13.4h13.4l-7.1,40.3h26.9c7.4,0,14.5-6,15.8-13.4l0,0H50.4
	l4.7-26.9h26.9c7.4,0,12.4,6,11.1,13.4l-2.4,13.4C88.2,89,74,101.1,59.1,101.1H32.3c-14.9,0-24.8-12-22.1-26.9l7.1-40.3
	C19.8,19,34,6.9,48.9,6.9h26.9c14.9,0,24.8,12,22.1,26.9l0,0H57.6z"/>
</svg>
