<?xml version="1.0" encoding="utf-8"?>
<!-- Generator: Adobe Illustrator 25.4.1, SVG Export Plug-In . SVG Version: 6.00 Build 0)  -->
<svg version="1.1" id="Layer_1" xmlns="http://www.w3.org/2000/svg" xmlns:xlink="http://www.w3.org/1999/xlink" x="0px" y="0px"
	 viewBox="0 0 150 150" style="enable-background:new 0 0 150 150;" xml:space="preserve">
<style type="text/css">
	.st0{fill:#20A9C2;}
	.st1{fill:#E5E5E5;}
	.st2{fill:#D6D6D6;}
	.st3{fill:#FFFFFF;}
	.st4{fill:#714721;}
	.st5{fill:#CBA25F;}
	.st6{fill:#7E4F25;}
	.st7{fill:#E3C790;}
	.st8{fill:#E7DEAF;}
	.st9{fill:#B8B8B8;}
	.st10{fill:#BDBBC3;}
</style>
<desc>Created with Sketch.</desc>
<g>
	<ellipse transform="matrix(0.13 -0.9915 0.9915 0.13 -9.1126 139.6145)" class="st0" cx="75" cy="75" rx="67" ry="67"/>
	<g>
		<path class="st1" d="M115.5,74.9c0,6.9-1.7,13.3-4.7,19c-1.1,2.1-2.4,4-3.8,5.9c-7.4,9.5-18.9,15.6-31.9,15.6
			c-22.3,0-40.5-18.1-40.5-40.5c0-22.3,18.1-40.5,40.5-40.5C97.3,34.5,115.5,52.6,115.5,74.9z"/>
		<path class="st2" d="M110.7,93.9c-1.1,2.1-2.4,4-3.8,5.9l-6.9-3.5c-7.8,10.9-22.6,14.8-34.9,8.5c-13.5-6.9-18.9-23.4-12-36.9
			c6.9-13.5,23.4-18.9,37-12c12.6,6.4,18.1,21.3,13.2,34.2L110.7,93.9z"/>
		<g>
			<path class="st3" d="M100.7,84.7c-0.4,0.9-0.8,1.8-1.2,2.8c-0.6,1.2-1.3,2.3-2.1,3.4c-7.8,10.9-22.6,14.8-34.9,8.5
				c-13.5-6.9-18.9-23.4-12-36.9c6.9-13.5,23.4-18.9,36.9-12C100.1,56.9,105.6,71.8,100.7,84.7z"/>
			<path class="st4" d="M94.6,85c-5.5,10.8-18.8,15.1-29.6,9.6C54.1,89,49.8,75.7,55.4,64.9c5.5-10.8,18.8-15.1,29.6-9.6
				C95.9,60.9,100.2,74.1,94.6,85z"/>
			<path class="st5" d="M85,55.3c-10.8-5.5-24.1-1.2-29.7,9.6C49.8,75.7,54.1,89,65,94.6c10.8,5.5,24.1,1.2,29.6-9.6
				C100.2,74.1,95.9,60.9,85,55.3z M66.7,93c-19.9-9.6-7.5-34.4,0.9-34.6c2.6-0.1,6.7,0.4,8.6,2.2c1.2,1.2,1.5,3,2.6,4.1
				c1.1,1.2,2.8,1.8,4.1,2.5c2.6,1.2,6.2,2.7,7.7,5.2c0.8,1.6,0.3,3.3,1.2,4.9c0.9,1.6,1.6,2.3,1.4,4.2
				C92.9,84.4,81.7,100.6,66.7,93z"/>
			<path class="st3" d="M113.7,95.3c-0.9,1.7-3,2.4-4.7,1.5l-11.6-5.9c0.8-1.1,1.5-2.2,2.1-3.4c0.5-0.9,0.9-1.8,1.2-2.8l11.5,5.9
				C113.9,91.4,114.6,93.5,113.7,95.3z"/>
			<g>
				<g>
					<path class="st6" d="M84.3,57.5c0.3,0.8-0.2,1.7-1,2l0,0c-0.8,0.3-1.7-0.2-2-1l0,0c-0.3-0.8,0.2-1.7,1-2l0,0
						C83.1,56.2,84,56.7,84.3,57.5L84.3,57.5z"/>
					<path class="st7" d="M83.8,57.2c0.1,0.4-0.4,0.4-1.1,0.6C82.4,57.9,82.2,58,82,58c-0.2,0.1-0.4,0.1-0.5-0.2
						c-0.1-0.2,0-0.4,0.2-0.6c0.2-0.2,0.4-0.4,0.7-0.5c0.3-0.1,0.6-0.1,0.9,0C83.5,56.8,83.7,57,83.8,57.2z"/>
				</g>
				<g>
					<path class="st6" d="M86.7,61.4c0.3,1-0.2,2-1.2,2.3l0,0c-1,0.3-2-0.2-2.3-1.2l0,0c-0.3-1,0.2-2,1.2-2.3l0,0
						C85.3,59.9,86.4,60.4,86.7,61.4L86.7,61.4z"/>
					<path class="st8" d="M86.1,60.9c0.2,0.5-0.5,0.5-1.2,0.7c-0.3,0.1-0.6,0.3-0.9,0.3c-0.3,0.1-0.5,0.1-0.5-0.2
						c-0.1-0.2,0-0.5,0.2-0.7c0.2-0.2,0.5-0.4,0.8-0.6c0.4-0.1,0.7-0.1,1,0C85.8,60.5,86,60.7,86.1,60.9z"/>
				</g>
				<g>
					<path class="st6" d="M90.4,62.8c0.2,0.8-0.2,1.6-0.9,1.8l0,0c-0.8,0.2-1.6-0.2-1.8-0.9l0,0c-0.2-0.8,0.2-1.6,0.9-1.8l0,0
						C89.4,61.7,90.2,62.1,90.4,62.8L90.4,62.8z"/>
					<path class="st5" d="M89.9,62.5c0.1,0.4-0.4,0.4-1,0.5c-0.3,0.1-0.5,0.2-0.7,0.3c-0.2,0.1-0.4,0.1-0.4-0.1
						c-0.1-0.2,0-0.4,0.1-0.6c0.1-0.2,0.4-0.3,0.7-0.4c0.3-0.1,0.6-0.1,0.8,0C89.7,62.2,89.9,62.3,89.9,62.5z"/>
				</g>
				<g>
					<path class="st6" d="M80.4,56.2c0.2,0.7-0.2,1.4-0.8,1.6l0,0c-0.7,0.2-1.4-0.2-1.6-0.8l0,0c-0.2-0.7,0.2-1.4,0.8-1.6l0,0
						C79.5,55.2,80.2,55.5,80.4,56.2L80.4,56.2z"/>
					<path class="st7" d="M80,55.9c0.1,0.3-0.3,0.3-0.9,0.5c-0.2,0.1-0.4,0.2-0.6,0.2c-0.2,0.1-0.3,0.1-0.4-0.1
						c-0.1-0.2,0-0.4,0.1-0.5c0.1-0.2,0.3-0.3,0.6-0.4c0.3-0.1,0.5-0.1,0.7,0C79.8,55.6,79.9,55.8,80,55.9z"/>
				</g>
				<g>
					<path class="st6" d="M91.4,65.4c0.1,0.4-0.1,0.9-0.5,1l0,0c-0.4,0.1-0.9-0.1-1-0.5l0,0c-0.1-0.4,0.1-0.9,0.5-1l0,0
						C90.9,64.7,91.3,65,91.4,65.4L91.4,65.4z"/>
				</g>
				<g>
					<path class="st6" d="M87.3,63.9c0.1,0.3-0.1,0.7-0.4,0.8l0,0c-0.3,0.1-0.7-0.1-0.8-0.4l0,0c-0.1-0.3,0.1-0.7,0.4-0.8l0,0
						C86.8,63.4,87.2,63.6,87.3,63.9L87.3,63.9z"/>
				</g>
				<g>
					<path class="st6" d="M88.5,60.3c0.1,0.4-0.1,0.9-0.5,1l0,0c-0.4,0.1-0.9-0.1-1-0.5l0,0c-0.1-0.4,0.1-0.9,0.5-1l0,0
						C87.9,59.6,88.4,59.9,88.5,60.3L88.5,60.3z"/>
				</g>
				<g>
					<path class="st6" d="M86.2,58.8c0.1,0.4-0.1,0.8-0.5,0.9l0,0c-0.4,0.1-0.8-0.1-0.9-0.5l0,0c-0.1-0.4,0.1-0.8,0.5-0.9l0,0
						C85.7,58.2,86.1,58.4,86.2,58.8L86.2,58.8z"/>
				</g>
				<g>
					<path class="st6" d="M80.8,58.9c0.1,0.4-0.1,0.8-0.5,0.9l0,0c-0.4,0.1-0.8-0.1-0.9-0.5l0,0c-0.1-0.4,0.1-0.8,0.5-0.9l0,0
						C80.3,58.3,80.7,58.5,80.8,58.9L80.8,58.9z"/>
				</g>
				<g>
					<path class="st6" d="M77.1,56.3c0.1,0.4-0.1,0.8-0.5,0.9l0,0c-0.4,0.1-0.8-0.1-0.9-0.5l0,0c-0.1-0.4,0.1-0.8,0.5-0.9l0,0
						C76.6,55.7,77,55.9,77.1,56.3L77.1,56.3z"/>
				</g>
			</g>
			<path class="st9" d="M68.1,95.9c-1.1-0.3-2.1-0.8-3.2-1.3C54.1,89,49.8,75.7,55.4,64.9c5.5-10.8,18.8-15.1,29.6-9.6
				c1,0.5,2,1.1,2.9,1.8C77.8,53.8,66.5,58.2,61.5,68C56.5,77.8,59.5,89.6,68.1,95.9z"/>
		</g>
	</g>
	<path class="st10" d="M141.4,84.1c-4,29.6-27.5,53.1-57.1,57.2l-36.2-36.2c7.2,6.4,16.6,10.2,26.9,10.2c13,0,24.5-6.1,31.9-15.6
		c0.8-1,1.5-2,2.1-3c1.7,0.9,3.8,0.2,4.7-1.5c0.9-1.7,0.2-3.7-1.4-4.6c2-4.8,3.2-10.1,3.2-15.7c0-10.5-4-20-10.5-27.2L141.4,84.1z"
		/>
</g>
</svg>
